<svg width="70" height="55" viewBox="0 0 70 55" fill="none" xmlns="http://www.w3.org/2000/svg">
<path d="M52.5002 22.5004H27.5846C26.9394 22.5091 26.3148 22.2732 25.8365 21.8401C25.3582 21.407 25.0617 20.8089 25.0064 20.166C24.9838 19.8246 25.0314 19.4821 25.1465 19.1599C25.2615 18.8376 25.4415 18.5424 25.6753 18.2925C25.9091 18.0426 26.1917 17.8434 26.5056 17.7071C26.8195 17.5709 27.158 17.5005 27.5002 17.5004H41.2502C41.5817 17.5004 41.8997 17.3687 42.1341 17.1343C42.3685 16.8999 42.5002 16.5819 42.5002 16.2504V13.7504C42.5002 13.4189 42.3685 13.101 42.1341 12.8665C41.8997 12.6321 41.5817 12.5004 41.2502 12.5004H27.5846C26.9383 12.5107 26.3122 12.2755 25.8326 11.8423C25.353 11.409 25.0555 10.81 25.0002 10.166C24.9775 9.82407 25.0253 9.48109 25.1408 9.1584C25.2562 8.8357 25.4367 8.54018 25.6712 8.2902C25.9056 8.04022 26.189 7.84111 26.5036 7.70525C26.8183 7.56939 27.1575 7.49966 27.5002 7.50042H41.2502C41.5817 7.50042 41.8997 7.36872 42.1341 7.1343C42.3685 6.89988 42.5002 6.58194 42.5002 6.25042V5.00042C42.5002 3.67433 41.9734 2.40257 41.0357 1.46488C40.098 0.527201 38.8263 0.000417422 37.5002 0.000417422H2.56894C1.99753 -0.00987563 1.43897 0.170447 0.981439 0.512917C0.552679 0.840771 0.241538 1.29858 0.094524 1.81792C-0.0524899 2.33725 -0.0274803 2.89022 0.165814 3.39417C3.62206 12.4067 2.90331 29.5535 0.0970637 39.3098C0.0326641 39.5343 5.54138e-05 39.7668 0.000188869 40.0004V50.0004C0.000188869 51.3265 0.526973 52.5983 1.46465 53.536C2.40234 54.4736 3.67411 55.0004 5.00019 55.0004H13.1596C13.9363 55.0006 14.7024 54.8197 15.3971 54.4723L19.3408 52.5004H24.4096L28.3533 54.4723C29.048 54.8197 29.8141 55.0006 30.5908 55.0004H39.4096C40.1863 55.0006 40.9524 54.8197 41.6471 54.4723L45.5908 52.5004H50.6596L54.6033 54.4723C55.298 54.8197 56.0641 55.0006 56.8408 55.0004H65.0002C66.3263 55.0004 67.598 54.4736 68.5357 53.536C69.4734 52.5983 70.0002 51.3265 70.0002 50.0004V40.0004C70.0002 35.3591 68.1564 30.9079 64.8746 27.626C61.5927 24.3442 57.1415 22.5004 52.5002 22.5004ZM65.0002 50.0004H56.8408L52.8971 48.0285C52.2024 47.6811 51.4363 47.5003 50.6596 47.5004H45.5908C44.8141 47.5003 44.048 47.6811 43.3533 48.0285L39.4096 50.0004H30.5908L26.6471 48.0285C25.9524 47.6811 25.1863 47.5003 24.4096 47.5004H19.3408C18.5641 47.5003 17.798 47.6811 17.1033 48.0285L13.1596 50.0004H5.00019V42.5004H65.0002V50.0004Z" fill="#545525"/>
</svg>
