<svg width="25" height="25" viewBox="0 0 25 25" fill="none" xmlns="http://www.w3.org/2000/svg">
<path d="M7.27539 1.1875L6.00586 6.07422L7.36328 8.26172L8.13965 6.82617L9.9707 8.33496L10.8252 5.625L7.27539 1.1875ZM15.5615 3.32129L13.9893 5.68359L14.5117 6.92871L15.5811 5.86914L16.4648 7.95898L16.9678 6.89941L15.5615 3.32129ZM11.4893 6.45508L10.4199 9.83887L8.40332 8.18359L7.42188 10.0098L5.70313 7.24121L1.3877 23.8135H7.56348C9.79004 22.9834 14.1699 21.0449 14.2627 18.623C14.3457 16.2891 8.94531 16.5039 8.85254 14.1699C8.7793 12.2607 12.9785 10.1904 12.9785 10.1904C12.9785 10.1904 10.3369 12.3047 10.6641 13.6572C11.2939 16.2451 16.7969 15.0049 17.6562 17.5293C18.291 19.3945 16.0205 22.6221 15.1074 23.8135H23.6133L17.4072 8.02246L16.4258 10.1074L15.2783 7.40234L14.1992 8.47168L13.4033 6.5625L12.5732 7.80762L11.4893 6.45508Z" fill="white"/>
</svg>
