<svg width="25" height="25" viewBox="0 0 25 25" fill="none" xmlns="http://www.w3.org/2000/svg">
<path d="M8.16357 1L7.17725 9.25781C7.17725 9.25781 5.00928 10.1025 4.20996 10.9033C2.64258 12.4707 0.988281 16.7236 0.988281 16.7236L3.50342 14.1064L5.23389 15.7715L4.31934 13.2568L4.64941 12.915C4.64941 12.915 7.15283 10.752 8.60303 10.9766C10.3608 11.25 12.4507 14.6729 12.4507 14.6729L11.562 18.623C8.92041 19.8975 6.35693 21.3184 3.7793 22.7197L7.65088 21.6357L8.23682 23.9746L8.96924 21.5186C8.96924 21.5186 10.8247 20.0439 11.938 19.9805C12.9536 19.9268 14.7896 21.0791 14.7896 21.0791L12.9634 23.0566L16.8062 21.4844L13.7642 19.2871C15.2632 16.7334 15.6831 14.5703 15.1558 11.6357C15.8394 11.0742 17.0259 10.4834 18.0806 10.9766L17.1919 12.4658L19.4722 15.3662L18.7202 12.7783L19.2231 11.7432C20.5024 12.9102 21.313 14.8047 21.3813 16.4697C21.4546 18.1738 19.0181 21.0059 19.0181 21.0059C22.1138 19.0625 22.8364 16.8018 22.3237 14.4922C22.8804 14.5508 23.4565 14.3994 24.0962 14.2871C22.5874 13.7549 22.1528 13.2324 21.5864 12.4658C21.2104 11.7041 20.7368 10.9521 20.2095 10.21L20.3022 9.38477L18.8179 8.2666L16.9868 8.70606L15.7417 1H8.16357Z" fill="white"/>
</svg>
