<svg width="25" height="25" viewBox="0 0 25 25" fill="none" xmlns="http://www.w3.org/2000/svg">
<path d="M18.7496 14.5835C19.1454 14.5835 19.4996 14.3647 19.6767 14.0106C19.8538 13.6564 19.8121 13.2397 19.5829 12.9168L17.7079 10.4168C17.9072 10.4173 18.1024 10.3607 18.2704 10.2536C18.4384 10.1465 18.5722 9.99348 18.6559 9.81266C18.8329 9.44808 18.7704 9.01058 18.51 8.7085L13.3017 2.4585C12.9059 1.97933 12.0934 1.97933 11.6975 2.4585L6.48919 8.7085C6.3624 8.86072 6.28165 9.04594 6.25641 9.24243C6.23116 9.43893 6.26248 9.63855 6.34667 9.81787C6.43087 9.9972 6.56446 10.1488 6.73177 10.2549C6.89907 10.361 7.09317 10.4172 7.29128 10.4168L5.41628 12.9168C5.17669 13.2293 5.14544 13.6564 5.32253 14.0106C5.40909 14.1824 5.54153 14.3268 5.70517 14.4279C5.8688 14.5291 6.05725 14.5829 6.24961 14.5835L4.37461 17.0835C4.13503 17.396 4.10378 17.8231 4.28086 18.1772C4.36742 18.349 4.49986 18.4935 4.6635 18.5946C4.82714 18.6957 5.01558 18.7496 5.20794 18.7502H11.4579V22.9168H13.5413V18.7502H19.7913C20.1871 18.7502 20.5413 18.5314 20.7184 18.1772C20.8954 17.8231 20.8538 17.4064 20.6246 17.0835L18.7496 14.5835Z" fill="white"/>
</svg>
