<svg width="25" height="25" viewBox="0 0 25 25" fill="none" xmlns="http://www.w3.org/2000/svg">
<path fill-rule="evenodd" clip-rule="evenodd" d="M16.4205 4.1665C17.0008 4.16652 17.5696 4.3281 18.0632 4.63314C18.5568 4.93817 18.9557 5.37462 19.2153 5.89359L20.659 8.78005C20.9132 8.67588 21.1632 8.56338 21.409 8.44254C21.6563 8.31905 21.9425 8.29884 22.2047 8.38636C22.4668 8.47388 22.6835 8.66195 22.807 8.90921C22.9305 9.15647 22.9507 9.44266 22.8631 9.70482C22.7756 9.96698 22.5876 10.1836 22.3403 10.3071C22.0899 10.4186 21.8382 10.5269 21.5851 10.6321L22.5861 12.6353C22.8034 13.0696 22.9165 13.5486 22.9163 14.0342V16.6665C22.9163 17.1062 22.8235 17.5409 22.644 17.9422C22.4646 18.3436 22.2024 18.7026 21.8747 18.9957V20.3123C21.8747 20.7267 21.7101 21.1242 21.417 21.4172C21.124 21.7102 20.7266 21.8748 20.3122 21.8748C19.8978 21.8748 19.5003 21.7102 19.2073 21.4172C18.9143 21.1242 18.7497 20.7267 18.7497 20.3123V19.7915H6.24967V20.3123C6.24967 20.7267 6.08505 21.1242 5.79203 21.4172C5.499 21.7102 5.10158 21.8748 4.68717 21.8748C4.27277 21.8748 3.87535 21.7102 3.58232 21.4172C3.28929 21.1242 3.12467 20.7267 3.12467 20.3123V18.9957C2.48509 18.4228 2.08301 17.5915 2.08301 16.6665V14.0332C2.0832 13.5482 2.19625 13.07 2.41322 12.6363L3.40592 10.6488C3.15454 10.5432 2.90627 10.4297 2.66113 10.3082C2.41512 10.1831 2.22812 9.96632 2.14044 9.70463C2.05275 9.44294 2.07141 9.15728 2.19238 8.90921C2.25349 8.78674 2.33812 8.67751 2.44146 8.58777C2.5448 8.49803 2.66481 8.42953 2.79463 8.38619C2.92446 8.34285 3.06155 8.32552 3.19807 8.33519C3.3346 8.34486 3.46788 8.38134 3.5903 8.44254C3.83683 8.56407 4.08683 8.67657 4.3403 8.78005L5.78405 5.89463C6.04347 5.37547 6.44235 4.93881 6.93597 4.63358C7.4296 4.32835 7.99847 4.16662 8.57884 4.1665H16.4205ZM7.81217 13.5415C7.39777 13.5415 7.00035 13.7061 6.70732 13.9991C6.41429 14.2922 6.24967 14.6896 6.24967 15.104C6.24967 15.5184 6.41429 15.9158 6.70732 16.2089C7.00035 16.5019 7.39777 16.6665 7.81217 16.6665C8.22658 16.6665 8.624 16.5019 8.91703 16.2089C9.21005 15.9158 9.37467 15.5184 9.37467 15.104C9.37467 14.6896 9.21005 14.2922 8.91703 13.9991C8.624 13.7061 8.22658 13.5415 7.81217 13.5415ZM17.1872 13.5415C16.7728 13.5415 16.3753 13.7061 16.0823 13.9991C15.7893 14.2922 15.6247 14.6896 15.6247 15.104C15.6247 15.5184 15.7893 15.9158 16.0823 16.2089C16.3753 16.5019 16.7728 16.6665 17.1872 16.6665C17.6016 16.6665 17.999 16.5019 18.292 16.2089C18.5851 15.9158 18.7497 15.5184 18.7497 15.104C18.7497 14.6896 18.5851 14.2922 18.292 13.9991C17.999 13.7061 17.6016 13.5415 17.1872 13.5415ZM16.4205 6.24984H8.57884C8.40739 6.24981 8.23858 6.29211 8.0874 6.37297C7.93622 6.45383 7.80733 6.57076 7.71217 6.71338L7.64759 6.82588L6.32467 9.46963C7.93717 9.95296 10.1101 10.4165 12.4997 10.4165C14.7309 10.4165 16.7715 10.0123 18.3434 9.56546L18.6736 9.46963L17.3518 6.82588C17.2751 6.67256 17.1618 6.54053 17.0219 6.4415C16.882 6.34247 16.7198 6.2795 16.5497 6.25817L16.4215 6.24984H16.4205Z" fill="white"/>
</svg>
