<svg width="25" height="25" viewBox="0 0 25 25" fill="none" xmlns="http://www.w3.org/2000/svg">
<path d="M17.4646 0.995692C17.3371 0.996148 17.2093 1.00087 17.0811 1.00985C13.9896 1.22655 10.6782 3.84218 10.1417 7.36986L24.1211 7.95883V4.37797C23.7261 3.9975 23.3196 3.63334 22.9027 3.29511C21.2137 1.92465 19.3775 0.988758 17.4647 0.995643L17.4646 0.995692ZM6.13037 1.99301C4.36343 1.99926 2.52651 2.72118 0.878906 4.23974V8.20946L9.28257 7.29076L9.26484 7.28812C9.45391 5.985 9.9644 4.79999 10.6888 3.7851C9.37173 2.60687 7.78174 1.98724 6.13032 1.9931L6.13037 1.99301ZM11.5143 8.31693C10.3185 8.30433 6.14956 8.90951 6.16265 9.6391C6.18511 10.8867 11.2619 12.1563 10.7879 12.2279C5.98403 12.9529 3.31875 12.9605 1.72559 14.4143C-0.174512 16.148 12.2228 18.3655 10.7306 18.7935C7.9374 19.5949 5.46592 20.5639 5.4082 23.1106C5.3999 23.4778 5.44727 23.813 5.54028 24.1214H8.22314C7.47007 23.1138 7.04883 22.1358 7.51025 21.8796C8.0187 22.6172 8.6085 23.3994 9.27656 24.1214H12.4155C11.4646 23.6374 9.88955 22.6854 9.94512 21.7081C10.0232 20.3326 13.1858 19.3762 13.3574 19.3762C13.3574 19.3762 10.9752 20.6644 10.9225 21.811C10.885 22.6255 12.0122 23.6169 12.6651 24.1214H15.203C14.3996 23.5196 13.9102 22.9046 14.2057 22.5645C14.9645 23.1048 15.8226 23.6601 16.7362 24.1214H21.947C19.1765 23.3407 16.9332 22.5262 16.3208 21.5273C15.8229 20.7153 19.8541 20.1681 19.2704 17.6746C18.9877 16.4667 16.4267 15.6681 9.34746 14.6167C8.10879 14.4328 15.9079 13.6667 15.6862 11.8282C15.5568 10.7549 10.6429 10.5171 10.0915 10.0248C9.85977 9.81791 10.3778 8.58143 11.5142 8.31708L11.5143 8.31693ZM4.46411 15.042C6.0938 15.035 8.58447 16.137 10.4602 16.8363L10.3728 17.4061C8.98589 16.8883 5.29932 15.5768 4.15005 15.0586C4.25063 15.0479 4.35547 15.0424 4.46411 15.042ZM17.6591 17.6691C17.6642 17.6688 17.664 17.6729 17.6584 17.6815C17.8488 18.2764 16.6092 19.8324 14.6405 19.7734C15.3315 19.4243 17.5571 17.6736 17.6591 17.6691V17.6691Z" fill="white"/>
</svg>
