<svg width="72" height="72" viewBox="0 0 72 72" fill="none" xmlns="http://www.w3.org/2000/svg">
<path d="M35.8303 3.83214e-09C34.4466 -3.73181e-05 33.0765 0.27254 31.7982 0.80216C30.5199 1.33178 29.3585 2.10807 28.3803 3.08667L3.08695 28.3833C2.1083 29.3615 1.33196 30.5229 0.802292 31.8012C0.272622 33.0795 0 34.4496 0 35.8333C0 37.217 0.272622 38.5871 0.802292 39.8654C1.33196 41.1437 2.1083 42.3052 3.08695 43.2833L28.3803 68.5767C29.3585 69.5553 30.5199 70.3317 31.7982 70.8613C33.0765 71.391 34.4466 71.6636 35.8303 71.6636C37.214 71.6636 38.5841 71.391 39.8624 70.8613C41.1407 70.3317 42.3021 69.5553 43.2803 68.5767L68.5736 43.2833C69.5523 42.3052 70.3286 41.1437 70.8583 39.8654C71.3879 38.5871 71.6606 37.217 71.6606 35.8333C71.6606 34.4496 71.3879 33.0795 70.8583 31.8012C70.3286 30.5229 69.5523 29.3615 68.5736 28.3833L43.2803 3.09C42.3024 2.1108 41.1411 1.3339 39.8627 0.8037C38.5844 0.273503 37.2142 0.000400301 35.8303 3.83214e-09ZM35.8303 18.7567C36.4933 18.7567 37.1292 19.0201 37.598 19.4889C38.0669 19.9577 38.3303 20.5936 38.3303 21.2567V39.59C38.3303 40.253 38.0669 40.8889 37.598 41.3578C37.1292 41.8266 36.4933 42.09 35.8303 42.09C35.1672 42.09 34.5314 41.8266 34.0625 41.3578C33.5937 40.8889 33.3303 40.253 33.3303 39.59V21.2567C33.3303 20.5936 33.5937 19.9577 34.0625 19.4889C34.5314 19.0201 35.1672 18.7567 35.8303 18.7567ZM38.3303 48.7433V50.41C38.3303 51.073 38.0669 51.7089 37.598 52.1778C37.1292 52.6466 36.4933 52.91 35.8303 52.91C35.1672 52.91 34.5314 52.6466 34.0625 52.1778C33.5937 51.7089 33.3303 51.073 33.3303 50.41V48.7433C33.3303 48.0803 33.5937 47.4444 34.0625 46.9756C34.5314 46.5067 35.1672 46.2433 35.8303 46.2433C36.4933 46.2433 37.1292 46.5067 37.598 46.9756C38.0669 47.4444 38.3303 48.0803 38.3303 48.7433Z" fill="#EFE318"/>
</svg>
