<svg width="12" height="10" viewBox="0 0 12 10" fill="none" xmlns="http://www.w3.org/2000/svg">
<path d="M11.7594 1.95456L6.80506 9.46153C6.69032 9.63539 6.56693 9.76906 6.43492 9.86254C6.3029 9.95601 6.15793 10.0018 6 9.99995C5.84207 9.99808 5.6971 9.95134 5.56508 9.85973C5.43307 9.76813 5.30968 9.63446 5.19494 9.45873L0.240591 1.95176C0.172731 1.84706 0.11536 1.72648 0.0684757 1.59001C0.0228249 1.45354 0 1.30678 0 1.14974C0 0.835667 0.0678587 0.565523 0.203577 0.339314C0.341764 0.113105 0.522517 -2.5918e-07 0.745836 -2.5918e-07H11.2523C11.4769 -2.5918e-07 11.6576 0.11591 11.7946 0.347728C11.9315 0.579545 12 0.848753 12 1.15535C12 1.23387 11.9198 1.49934 11.7594 1.95176" fill="black"/>
</svg>
