<svg width="80" height="80" viewBox="0 0 80 80" fill="none" xmlns="http://www.w3.org/2000/svg">
<path d="M66.666 13.3334H13.3327C9.66602 13.3334 6.69935 16.3334 6.69935 20L6.66602 60C6.66602 63.6667 9.66602 66.6667 13.3327 66.6667H66.666C70.3327 66.6667 73.3327 63.6667 73.3327 60V20C73.3327 16.3334 70.3327 13.3334 66.666 13.3334ZM65.3327 27.5L41.766 42.2334C40.6993 42.9 39.2994 42.9 38.2327 42.2334L14.666 27.5C14.3318 27.3124 14.0391 27.0589 13.8056 26.7549C13.5722 26.4509 13.4029 26.1026 13.3079 25.7313C13.213 25.3599 13.1944 24.9732 13.2532 24.5944C13.312 24.2156 13.4471 23.8528 13.6503 23.5277C13.8534 23.2027 14.1204 22.9222 14.4351 22.7034C14.7498 22.4845 15.1056 22.3317 15.481 22.2544C15.8564 22.177 16.2436 22.1766 16.6192 22.2532C16.9948 22.3298 17.3509 22.4818 17.666 22.7L39.9993 36.6667L62.3327 22.7C62.6478 22.4818 63.0039 22.3298 63.3795 22.2532C63.7551 22.1766 64.1423 22.177 64.5177 22.2544C64.8931 22.3317 65.2489 22.4845 65.5636 22.7034C65.8783 22.9222 66.1453 23.2027 66.3484 23.5277C66.5516 23.8528 66.6866 24.2156 66.7455 24.5944C66.8043 24.9732 66.7857 25.3599 66.6908 25.7313C66.5958 26.1026 66.4265 26.4509 66.1931 26.7549C65.9596 27.0589 65.6669 27.3124 65.3327 27.5Z" fill="#1C1C1B"/>
</svg>
