<svg width="80" height="80" viewBox="0 0 80 80" fill="none" xmlns="http://www.w3.org/2000/svg">
<path d="M23.3331 66.6667C21.4998 66.6667 19.9309 66.0144 18.6264 64.71C17.322 63.4056 16.6687 61.8356 16.6664 60V36.1667L9.99978 41.25C9.222 41.8056 8.38867 42.0422 7.49978 41.96C6.61089 41.8778 5.88867 41.4467 5.33312 40.6667C4.77756 39.8867 4.55534 39.0533 4.66645 38.1667C4.77756 37.28 5.22201 36.5578 5.99978 36L35.9164 13.0833C36.5276 12.6389 37.1809 12.3056 37.8764 12.0833C38.572 11.8611 39.2798 11.75 39.9998 11.75C40.7198 11.75 41.4287 11.8611 42.1264 12.0833C42.8242 12.3056 43.4764 12.6389 44.0831 13.0833L53.3331 20.1667V18.3333C53.3331 16.9444 53.8198 15.7644 54.7931 14.7933C55.7664 13.8222 56.9464 13.3356 58.3331 13.3333C59.7198 13.3311 60.9009 13.8178 61.8764 14.7933C62.852 15.7689 63.3376 16.9489 63.3331 18.3333V27.8333L73.9998 36C74.722 36.5556 75.1531 37.2778 75.2931 38.1667C75.4331 39.0556 75.2242 39.8889 74.6664 40.6667C74.1087 41.4444 73.3864 41.8756 72.4998 41.96C71.6131 42.0444 70.7798 41.8078 69.9998 41.25L63.3331 36.1667V60C63.3331 61.8333 62.6809 63.4033 61.3764 64.71C60.072 66.0167 58.502 66.6689 56.6664 66.6667H53.3331C51.4998 66.6667 49.9309 66.0144 48.6264 64.71C47.322 63.4056 46.6687 61.8356 46.6664 60V53.3333C46.6664 51.5 46.0142 49.9311 44.7098 48.6267C43.4053 47.3222 41.8353 46.6689 39.9998 46.6667C38.1642 46.6644 36.5953 47.3178 35.2931 48.6267C33.9909 49.9356 33.3376 51.5044 33.3331 53.3333V60C33.3331 61.8333 32.6809 63.4033 31.3764 64.71C30.072 66.0167 28.502 66.6689 26.6664 66.6667H23.3331ZM33.3331 33.4167H46.6664C46.6664 31.6389 45.9998 30.18 44.6664 29.04C43.3331 27.9 41.7776 27.3311 39.9998 27.3333C38.222 27.3356 36.6665 27.9056 35.3331 29.0433C33.9998 30.1811 33.3331 31.6389 33.3331 33.4167Z" fill="#1C1C1B"/>
</svg>
