<svg width="59" height="59" viewBox="0 0 59 59" fill="none" xmlns="http://www.w3.org/2000/svg">
<rect width="59" height="59" rx="7" fill="#FFFEFF"/>
<path d="M29 25.288C28.0681 25.288 27.157 25.5644 26.3822 26.0821C25.6073 26.5999 25.0033 27.3358 24.6467 28.1968C24.29 29.0578 24.1967 30.0052 24.3785 30.9193C24.5604 31.8333 25.0091 32.6729 25.6681 33.3319C26.3271 33.9909 27.1667 34.4396 28.0807 34.6215C28.9948 34.8033 29.9422 34.71 30.8032 34.3533C31.6642 33.9967 32.4001 33.3927 32.9179 32.6178C33.4356 31.843 33.712 30.9319 33.712 30C33.712 29.3812 33.5901 28.7685 33.3533 28.1968C33.1165 27.6251 32.7694 27.1057 32.3319 26.6681C31.8943 26.2306 31.3749 25.8835 30.8032 25.6467C30.2315 25.4099 29.6188 25.288 29 25.288ZM47.867 20.633C47.857 19.1657 47.5868 17.7119 47.069 16.339C46.6876 15.3344 46.0976 14.4221 45.3377 13.6623C44.5779 12.9024 43.6656 12.3124 42.661 11.931C41.2881 11.4132 39.8343 11.143 38.367 11.133C35.916 11 35.194 11 29 11C22.806 11 22.084 11 19.633 11.133C18.1657 11.143 16.7119 11.4132 15.339 11.931C14.3344 12.3124 13.4221 12.9024 12.6623 13.6623C11.9024 14.4221 11.3124 15.3344 10.931 16.339C10.4132 17.7119 10.143 19.1657 10.133 20.633C10 23.084 10 23.806 10 30C10 36.194 10 36.916 10.133 39.367C10.1535 40.8394 10.4233 42.2977 10.931 43.68C11.3107 44.68 11.9002 45.587 12.66 46.34C13.4166 47.1044 14.3308 47.6944 15.339 48.069C16.7119 48.5868 18.1657 48.857 19.633 48.867C22.084 49 22.806 49 29 49C35.194 49 35.916 49 38.367 48.867C39.8343 48.857 41.2881 48.5868 42.661 48.069C43.6692 47.6944 44.5834 47.1044 45.34 46.34C46.0998 45.587 46.6893 44.68 47.069 43.68C47.5863 42.3004 47.8564 40.8404 47.867 39.367C48 36.916 48 36.194 48 30C48 23.806 48 23.084 47.867 20.633ZM43.041 35.833C42.98 37.0055 42.7298 38.1604 42.3 39.253C41.9311 40.1644 41.3828 40.9923 40.6876 41.6876C39.9923 42.3828 39.1644 42.9311 38.253 43.3C37.1501 43.7058 35.9887 43.9304 34.814 43.965C33.313 43.965 32.914 43.965 29 43.965C25.086 43.965 24.687 43.965 23.186 43.965C22.0113 43.9304 20.8499 43.7058 19.747 43.3C18.8048 42.9499 17.9539 42.3913 17.258 41.666C16.5696 40.9844 16.0379 40.1609 15.7 39.253C15.2926 38.1512 15.0742 36.9885 15.054 35.814C15.054 34.313 15.054 33.914 15.054 30C15.054 26.086 15.054 25.687 15.054 24.186C15.0742 23.0115 15.2926 21.8488 15.7 20.747C16.0501 19.8048 16.6087 18.9539 17.334 18.258C18.0186 17.5733 18.8412 17.0422 19.747 16.7C20.8499 16.2942 22.0113 16.0696 23.186 16.035C24.687 16.035 25.086 16.035 29 16.035C32.914 16.035 33.313 16.035 34.814 16.035C35.9887 16.0696 37.1501 16.2942 38.253 16.7C39.1952 17.0501 40.0461 17.6087 40.742 18.334C41.4304 19.0156 41.9621 19.8391 42.3 20.747C42.7058 21.8499 42.9304 23.0113 42.965 24.186C42.965 25.687 42.965 26.086 42.965 30C42.965 33.914 43.098 34.313 43.041 35.814V35.833ZM40.001 21.697C39.7748 21.0833 39.4181 20.5259 38.9556 20.0634C38.4931 19.6009 37.9357 19.2442 37.322 19.018C36.4793 18.7259 35.5918 18.5844 34.7 18.6C33.218 18.6 32.8 18.6 29 18.6C25.2 18.6 24.782 18.6 23.3 18.6C22.4037 18.6088 21.516 18.776 20.678 19.094C20.0737 19.3099 19.5222 19.6521 19.0603 20.0976C18.5984 20.5431 18.2366 21.0819 17.999 21.678C17.7231 22.5242 17.5883 23.41 17.6 24.3C17.6 25.782 17.6 26.2 17.6 30C17.6 33.8 17.6 34.218 17.6 35.7C17.6188 36.5953 17.7858 37.4813 18.094 38.322C18.3202 38.9357 18.6769 39.4931 19.1394 39.9556C19.6019 40.4181 20.1593 40.7748 20.773 41.001C21.5837 41.2991 22.4367 41.4659 23.3 41.495C24.782 41.495 25.2 41.495 29 41.495C32.8 41.495 33.218 41.495 34.7 41.495C35.5963 41.4862 36.484 41.319 37.322 41.001C37.9357 40.7748 38.4931 40.4181 38.9556 39.9556C39.4181 39.4931 39.7748 38.9357 40.001 38.322C40.319 37.484 40.4862 36.5963 40.495 35.7C40.495 34.218 40.495 33.8 40.495 30C40.495 26.2 40.495 25.782 40.495 24.3C40.4955 23.4028 40.328 22.5135 40.001 21.678V21.697ZM29 37.258C28.0478 37.258 27.1049 37.0701 26.2254 36.7052C25.3458 36.3402 24.547 35.8053 23.8745 35.131C23.2021 34.4568 22.6692 33.6565 22.3066 32.7761C21.9439 31.8956 21.7585 30.9522 21.761 30C21.761 28.5637 22.1872 27.1597 22.9855 25.9657C23.7839 24.7717 24.9186 23.8415 26.2459 23.2927C27.5732 22.7439 29.0335 22.6013 30.442 22.8829C31.8504 23.1645 33.1436 23.8576 34.1579 24.8746C35.1722 25.8915 35.8619 27.1866 36.1398 28.5957C36.4178 30.0049 36.2713 31.4648 35.719 32.7907C35.1668 34.1166 34.2336 35.2488 33.0375 36.0441C31.8414 36.8393 30.4363 37.2618 29 37.258ZM36.6 24.167C36.18 24.1225 35.7913 23.9242 35.5088 23.6102C35.2263 23.2963 35.07 22.8889 35.07 22.4665C35.07 22.0441 35.2263 21.6367 35.5088 21.3228C35.7913 21.0088 36.18 20.8105 36.6 20.766C37.02 20.8105 37.4087 21.0088 37.6912 21.3228C37.9737 21.6367 38.13 22.0441 38.13 22.4665C38.13 22.8889 37.9737 23.2963 37.6912 23.6102C37.4087 23.9242 37.02 24.1225 36.6 24.167Z" fill="black"/>
</svg>
