<svg width="59" height="59" viewBox="0 0 59 59" fill="none" xmlns="http://www.w3.org/2000/svg">
<rect width="59" height="59" rx="7" fill="#FFFEFF"/>
<path d="M30.5308 16.2251L33.01 13.746C33.8795 12.8757 34.9119 12.1853 36.0483 11.7141C37.1846 11.2429 38.4027 11.0003 39.6329 11C40.8631 10.9997 42.0813 11.2418 43.2179 11.7124C44.3545 12.1831 45.3872 12.873 46.2571 13.7429C47.1269 14.6128 47.8169 15.6455 48.2875 16.7821C48.7582 17.9187 49.0003 19.1369 49 20.3671C48.9997 21.5973 48.757 22.8153 48.2859 23.9517C47.8147 25.0881 47.1243 26.1205 46.254 26.99L40.234 33.01C39.3644 33.8796 38.332 34.5694 37.1958 35.04C36.0596 35.5106 34.8418 35.7529 33.612 35.7529C32.3822 35.7529 31.1644 35.5106 30.0282 35.04C28.892 34.5694 27.8596 33.8796 26.99 33.01" stroke="black" stroke-width="6" stroke-linecap="round" stroke-linejoin="round"/>
<path d="M29.4688 43.7752L26.99 46.2539C26.1205 47.1242 25.0881 47.8147 23.9517 48.2858C22.8154 48.757 21.5973 48.9997 20.3671 48.9999C19.1369 49.0002 17.9187 48.7581 16.7821 48.2875C15.6455 47.8169 14.6128 47.1269 13.7429 46.257C12.873 45.3872 12.1831 44.3544 11.7124 43.2178C11.2418 42.0812 10.9997 40.863 11 39.6329C11.0003 38.4027 11.2429 37.1846 11.7141 36.0482C12.1853 34.9119 12.8757 33.8794 13.746 33.01L19.766 26.99C20.6356 26.1204 21.668 25.4306 22.8042 24.9599C23.9404 24.4893 25.1582 24.2471 26.388 24.2471C27.6178 24.2471 28.8356 24.4893 29.9718 24.9599C31.108 25.4306 32.1404 26.1204 33.01 26.99" stroke="black" stroke-width="6" stroke-linecap="round" stroke-linejoin="round"/>
</svg>
