<svg width="60" height="60" viewBox="0 0 60 60" fill="none" xmlns="http://www.w3.org/2000/svg">
<path d="M12.5 0C9.18479 0 6.00537 1.31696 3.66117 3.66117C1.31696 6.00537 0 9.18479 0 12.5V47.5C0 50.8152 1.31696 53.9946 3.66117 56.3388C6.00537 58.683 9.18479 60 12.5 60H47.5C50.8152 60 53.9946 58.683 56.3388 56.3388C58.683 53.9946 60 50.8152 60 47.5V12.5C60 9.18479 58.683 6.00537 56.3388 3.66117C53.9946 1.31696 50.8152 0 47.5 0H12.5ZM20 30C20 27.3478 21.0536 24.8043 22.9289 22.9289C24.8043 21.0536 27.3478 20 30 20C32.6522 20 35.1957 21.0536 37.0711 22.9289C38.9464 24.8043 40 27.3478 40 30C40 32.6522 38.9464 35.1957 37.0711 37.0711C35.1957 38.9464 32.6522 40 30 40C27.3478 40 24.8043 38.9464 22.9289 37.0711C21.0536 35.1957 20 32.6522 20 30ZM15.205 27.5C15.7235 24.4274 17.186 21.5926 19.3893 19.3893C21.5926 17.186 24.4274 15.7235 27.5 15.205V12.5C27.5 11.837 27.7634 11.2011 28.2322 10.7322C28.7011 10.2634 29.337 10 30 10C30.663 10 31.2989 10.2634 31.7678 10.7322C32.2366 11.2011 32.5 11.837 32.5 12.5V15.205C35.5726 15.7235 38.4074 17.186 40.6107 19.3893C42.814 21.5926 44.2765 24.4274 44.795 27.5H47.5C48.163 27.5 48.7989 27.7634 49.2678 28.2322C49.7366 28.7011 50 29.337 50 30C50 30.663 49.7366 31.2989 49.2678 31.7678C48.7989 32.2366 48.163 32.5 47.5 32.5H44.795C44.2765 35.5726 42.814 38.4074 40.6107 40.6107C38.4074 42.814 35.5726 44.2765 32.5 44.795V47.5C32.5 48.163 32.2366 48.7989 31.7678 49.2678C31.2989 49.7366 30.663 50 30 50C29.337 50 28.7011 49.7366 28.2322 49.2678C27.7634 48.7989 27.5 48.163 27.5 47.5V44.795C24.4274 44.2765 21.5926 42.814 19.3893 40.6107C17.186 38.4074 15.7235 35.5726 15.205 32.5H12.5C11.837 32.5 11.2011 32.2366 10.7322 31.7678C10.2634 31.2989 10 30.663 10 30C10 29.337 10.2634 28.7011 10.7322 28.2322C11.2011 27.7634 11.837 27.5 12.5 27.5H15.205ZM35 30C35 28.6739 34.4732 27.4021 33.5355 26.4645C32.5979 25.5268 31.3261 25 30 25C28.6739 25 27.4021 25.5268 26.4645 26.4645C25.5268 27.4021 25 28.6739 25 30C25 31.3261 25.5268 32.5979 26.4645 33.5355C27.4021 34.4732 28.6739 35 30 35C31.3261 35 32.5979 34.4732 33.5355 33.5355C34.4732 32.5979 35 31.3261 35 30Z" fill="#EFE318"/>
</svg>
