<svg width="59" height="59" viewBox="0 0 59 59" fill="none" xmlns="http://www.w3.org/2000/svg">
<rect width="59" height="59" rx="7" fill="#FFFEFF"/>
<path d="M10 19.1733V18.25C10 17.6533 10.2502 17.081 10.6956 16.659C11.141 16.2371 11.7451 16 12.375 16H45.625C46.2549 16 46.859 16.2371 47.3044 16.659C47.7498 17.081 48 17.6533 48 18.25V19.1733L29 30.4233L10 19.1733ZM29.6294 32.7043C29.4406 32.8159 29.2225 32.8751 29 32.8751C28.7775 32.8751 28.5594 32.8159 28.3706 32.7043L10 21.8267V40.75C10 41.3467 10.2502 41.919 10.6956 42.341C11.141 42.7629 11.7451 43 12.375 43H45.625C46.2549 43 46.859 42.7629 47.3044 42.341C47.7498 41.919 48 41.3467 48 40.75V21.8267L29.6294 32.7043Z" fill="black"/>
</svg>
