<svg width="25" height="25" viewBox="0 0 25 25" fill="none" xmlns="http://www.w3.org/2000/svg">
<path d="M7.31738 12.3179L8.17676 10.547C8.35037 10.1825 8.60662 9.896 8.94551 9.68766C9.2844 9.47933 9.65315 9.37516 10.0518 9.37516H11.458V2.0835H18.7497L17.708 4.16683L18.7497 6.25016H13.5413V9.37516H14.8695C15.2688 9.37516 15.6292 9.47933 15.9507 9.68766C16.2722 9.896 16.5281 10.1738 16.7184 10.521L17.6299 12.3439L14.5049 14.4272L12.4997 13.4116L10.4945 14.4272L7.31738 12.3179ZM2.08301 22.9168L6.37988 14.1929L10.3382 16.8231L12.4997 15.7554L14.6611 16.8231L18.5674 14.245L22.9163 22.9168H2.08301Z" fill="black"/>
</svg>
