<svg width="80" height="80" viewBox="0 0 80 80" fill="none" xmlns="http://www.w3.org/2000/svg">
<path d="M23.3333 19.9998C23.3333 40.2665 39.7333 56.6665 60 56.6665C61.7667 56.6665 63.5 56.5331 65.2 56.2998C59.8333 64.5331 50.5667 69.9998 40 69.9998C23.4333 69.9998 10 56.5665 10 39.9998C10 29.4331 15.4667 20.1665 23.7 14.7998C23.4667 16.4998 23.3333 18.2331 23.3333 19.9998Z" fill="white" stroke="white" stroke-width="2" stroke-linecap="round" stroke-linejoin="round"/>
<path d="M50.733 20.0999L59.1663 13.6333L48.533 13.3333L44.9997 3.33325L41.4663 13.3333L30.833 13.6333L39.2663 20.0999L36.233 30.2999L44.9997 24.2666L53.7663 30.2999L50.733 20.0999Z" fill="white"/>
<path d="M65.3667 40.8333L70.8333 36.6667L63.9667 36.5L61.6667 30L59.3667 36.5L52.5 36.6667L57.9667 40.8333L56 47.4333L61.6667 43.5333L67.3333 47.4333L65.3667 40.8333Z" fill="white"/>
</svg>
