<svg width="76" height="76" viewBox="0 0 76 76" fill="none" xmlns="http://www.w3.org/2000/svg">
<path d="M42.3638 9.58232C47.1985 9.84683 51.8862 11.3382 55.985 13.9158C60.0838 16.4934 63.4587 20.0724 65.7915 24.3153C68.1243 28.5582 69.3381 33.3253 69.3186 38.1671C69.2992 43.009 68.047 47.7662 65.6801 51.9902C63.3132 56.2142 59.9097 59.7659 55.7903 62.3104C51.6709 64.8549 46.9713 66.3085 42.1347 66.5341C37.298 66.7597 32.4836 65.7499 28.1452 63.5998C23.8068 61.4498 20.0874 58.2303 17.3377 54.245C17.1516 53.9752 17.0301 53.6662 16.9825 53.3419C16.9349 53.0176 16.9625 52.6867 17.0632 52.3748C17.1639 52.0629 17.335 51.7783 17.5632 51.5431C17.7915 51.3078 18.0708 51.1282 18.3795 51.0182C29.1177 47.1738 34.8715 42.7215 38.2092 36.347C41.7242 29.64 42.6298 22.2933 40.1725 12.2202C40.0935 11.8962 40.0913 11.5582 40.1663 11.2332C40.2412 10.9082 40.3912 10.6053 40.6041 10.3487C40.8171 10.092 41.0871 9.88876 41.3927 9.75514C41.6982 9.62152 42.0308 9.56442 42.3638 9.58232ZM34.8145 11.5647L34.8335 11.875V28.5C34.833 29.8209 34.4195 31.1085 33.6509 32.1828C32.8823 33.257 31.7971 34.0641 30.5471 34.491C29.2971 34.9179 27.9449 34.9433 26.6798 34.5636C25.4147 34.184 24.2999 33.4183 23.4915 32.3737C22.6831 31.3291 22.2215 30.0578 22.1714 28.7379C22.1213 27.418 22.4851 26.1154 23.2119 25.0125C23.9388 23.9096 24.9923 23.0615 26.225 22.587C27.4577 22.1125 28.8079 22.0353 30.0867 22.3662L30.0835 15.0828L19.0002 18.4585V31.6667C18.9997 32.9875 18.5862 34.2752 17.8176 35.3494C17.049 36.4237 15.9638 37.2307 14.7138 37.6576C13.4638 38.0846 12.1116 38.11 10.8465 37.7303C9.58133 37.3507 8.46655 36.5849 7.65815 35.5403C6.84975 34.4957 6.38819 33.2245 6.33806 31.9046C6.28793 30.5846 6.65175 29.2821 7.3786 28.1792C8.10544 27.0762 9.15894 26.2282 10.3916 25.7537C11.6243 25.2792 12.9746 25.2019 14.2533 25.5328L14.2502 16.6978C14.2497 16.2472 14.3776 15.8057 14.6187 15.4249C14.8598 15.0442 15.2042 14.7399 15.6118 14.5477L15.9348 14.4242L31.7682 9.60765C32.0979 9.50724 32.4455 9.4798 32.7869 9.52724C33.1283 9.57468 33.4553 9.69587 33.7452 9.88238C34.0351 10.0689 34.2808 10.3163 34.4655 10.6073C34.6502 10.8984 34.7692 11.2261 34.8145 11.5678" fill="white"/>
</svg>
