<svg width="80" height="80" viewBox="0 0 80 80" fill="none" xmlns="http://www.w3.org/2000/svg">
<path d="M20.6001 36.5L29.0668 47.0833L29.3468 47.3933C29.9747 48.0027 30.817 48.3407 31.6919 48.3345C32.5669 48.3282 33.4043 47.9782 34.0234 47.36L39.4801 41.9L43.8934 48.5167C44.1498 48.9012 44.4833 49.2283 44.8728 49.477C45.2623 49.7258 45.6993 49.8908 46.156 49.9617C46.6128 50.0325 47.0792 50.0076 47.5258 49.8885C47.9723 49.7695 48.3893 49.5588 48.7501 49.27L60.8568 39.5833L73.0134 65.24C73.2541 65.7481 73.3623 66.3088 73.3279 66.87C73.2936 67.4312 73.118 67.9746 72.8173 68.4496C72.5165 68.9246 72.1005 69.3159 71.608 69.587C71.1154 69.858 70.5623 70.0001 70.0001 70H10.0001C9.43787 70.0001 8.88475 69.858 8.3922 69.587C7.89964 69.3159 7.48365 68.9246 7.18293 68.4496C6.88221 67.9746 6.70652 67.4312 6.67223 66.87C6.63793 66.3088 6.74612 65.7481 6.98675 65.24L20.6001 36.5ZM40.0001 10.24C42.0833 10.2398 44.1238 10.8311 45.8841 11.9452C47.6443 13.0594 49.0521 14.6504 49.9434 16.5333L57.9234 33.39L47.4234 41.79L42.7734 34.8167L42.5234 34.4867C42.2238 34.1399 41.8559 33.8587 41.4427 33.6605C41.0295 33.4624 40.5799 33.3516 40.1219 33.335C39.664 33.3184 39.2075 33.3964 38.7811 33.5642C38.3546 33.7319 37.9673 33.9858 37.6434 34.31L31.9401 40.0067L27.6034 34.5833L23.7668 29.8L30.0601 16.5333C30.9512 14.6509 32.3584 13.0602 34.118 11.9461C35.8777 10.8321 37.9174 10.2404 40.0001 10.24Z" fill="black"/>
</svg>
