<svg width="72" height="72" viewBox="0 0 72 72" fill="none" xmlns="http://www.w3.org/2000/svg">
<rect width="71.3597" height="71.3739" rx="10" fill="#EFE318"/>
<path d="M59.6618 22.9761L31.5138 56.7582C31.4175 56.8734 31.2989 56.9679 31.1653 57.0361C31.0316 57.1044 30.8855 57.1449 30.7358 57.1553C30.5861 57.1657 30.4358 57.1458 30.294 57.0967C30.1521 57.0477 30.0217 56.9705 29.9104 56.8698L11.5197 40.3177C11.4095 40.2186 11.3202 40.0985 11.257 39.9644C11.1938 39.8304 11.1579 39.6851 11.1514 39.5371C11.145 39.389 11.1681 39.2411 11.2195 39.1021C11.2708 38.9631 11.3494 38.8357 11.4505 38.7274L17.4481 32.306C17.6455 32.0947 17.9172 31.9683 18.2059 31.9535C18.4946 31.9388 18.7778 32.0367 18.9957 32.2268L29.247 41.1686L52.3764 14.8762C52.4825 14.7557 52.6133 14.6595 52.7599 14.5942C52.9065 14.5289 53.0655 14.4961 53.2259 14.4979C53.3864 14.4997 53.5446 14.5361 53.6897 14.6047C53.8349 14.6733 53.9635 14.7723 54.0668 14.8952L59.6618 21.5441C59.8299 21.7448 59.9219 21.9983 59.9219 22.2601C59.9219 22.5219 59.8299 22.7753 59.6618 22.9761Z" fill="#222222"/>
</svg>
