<svg width="72" height="72" viewBox="0 0 72 72" fill="none" xmlns="http://www.w3.org/2000/svg">
<rect width="71.3597" height="71.3739" rx="10" fill="#EFE318"/>
<path d="M59.6614 22.9761L31.5133 56.7582C31.417 56.8734 31.2985 56.9679 31.1648 57.0361C31.0311 57.1044 30.8851 57.1449 30.7354 57.1553C30.5856 57.1657 30.4354 57.1458 30.2935 57.0967C30.1517 57.0477 30.0212 56.9705 29.9099 56.8698L11.5192 40.3177C11.4091 40.2186 11.3198 40.0985 11.2565 39.9644C11.1933 39.8304 11.1574 39.6851 11.151 39.5371C11.1446 39.389 11.1677 39.2411 11.219 39.1021C11.2704 38.9631 11.3489 38.8357 11.4501 38.7274L17.4476 32.306C17.645 32.0947 17.9167 31.9683 18.2054 31.9535C18.4942 31.9388 18.7774 32.0367 18.9953 32.2268L29.2465 41.1686L52.376 14.8762C52.482 14.7557 52.6128 14.6595 52.7594 14.5942C52.906 14.5289 53.065 14.4961 53.2255 14.4979C53.386 14.4997 53.5442 14.5361 53.6893 14.6047C53.8344 14.6733 53.963 14.7723 54.0663 14.8952L59.6614 21.5441C59.8294 21.7448 59.9215 21.9983 59.9215 22.2601C59.9215 22.5219 59.8294 22.7753 59.6614 22.9761Z" fill="#222222"/>
</svg>
