<svg width="25" height="25" viewBox="0 0 25 25" fill="none" xmlns="http://www.w3.org/2000/svg">
<path d="M2.08301 22.8833C3.07259 22.8833 4.05072 22.974 4.87259 22.3333C5.67884 21.7042 6.96113 21.725 7.73613 22.3792C8.57988 23.0927 10.1736 23.0719 11.0382 22.4C11.8757 21.7458 13.1465 21.6708 13.9861 22.3792C14.907 23.1573 16.458 23.0458 17.3726 22.3333C18.1788 21.7042 19.4611 21.725 20.2361 22.3792C20.982 23.0094 21.9997 22.8833 22.9163 22.8833M2.08301 18.7167C3.07259 18.7167 4.05072 18.8073 4.87259 18.1667C5.67884 17.5375 6.96113 17.5583 7.73613 18.2125C8.57988 18.926 10.1736 18.9052 11.0382 18.2333C11.8757 17.5792 13.1465 17.5042 13.9861 18.2125C14.907 18.9906 16.458 18.8792 17.3726 18.1667C18.1788 17.5375 19.4611 17.5583 20.2361 18.2125C20.982 18.8427 21.9997 18.7167 22.9163 18.7167M2.08301 14.5833H22.9163M6.24967 14.5833V3.125M6.24967 3.125C5.98926 3.81979 4.99967 5.72917 3.12467 5.72917M6.24967 3.125C6.51009 3.81979 7.49967 5.72917 9.37467 5.72917M3.12467 8.85417C4.99967 8.85417 5.98926 6.94479 6.24967 6.25C6.51009 6.94479 7.49967 8.85417 9.37467 8.85417" stroke="black" stroke-width="1.5625" stroke-linecap="round" stroke-linejoin="round"/>
<path d="M18.2292 7.29183C19.6674 7.29183 20.8333 6.1259 20.8333 4.68766C20.8333 3.24942 19.6674 2.0835 18.2292 2.0835C16.7909 2.0835 15.625 3.24942 15.625 4.68766C15.625 6.1259 16.7909 7.29183 18.2292 7.29183Z" stroke="black" stroke-width="1.5625" stroke-linecap="round" stroke-linejoin="round"/>
</svg>
