<svg width="25" height="25" viewBox="0 0 25 25" fill="none" xmlns="http://www.w3.org/2000/svg">
<path d="M19.253 17.4656C17.8293 17.8074 16.3429 17.7909 14.9271 17.4174C13.5113 17.0438 12.2102 16.325 11.1404 15.3253C10.0705 14.3255 9.26536 13.076 8.79691 11.6887C8.32847 10.3014 8.21139 8.81963 8.45617 7.37598C8.4195 7.41254 8.38015 7.44631 8.33846 7.47702C8.04679 7.69889 7.68221 7.78118 6.95304 7.94577L6.29159 8.09577C3.72909 8.67598 2.44784 8.96556 2.14263 9.94577C1.83846 10.9249 2.71138 11.9468 4.45825 13.9895L4.91034 14.5176C5.40617 15.0979 5.65513 15.3885 5.76659 15.7468C5.87804 16.1062 5.84054 16.4937 5.76554 17.2676L5.69679 17.9729C5.43325 20.6989 5.30096 22.0614 6.09888 22.6666C6.89679 23.2718 8.09679 22.7208 10.4947 21.6156L11.1166 21.3301C11.7978 21.0156 12.1385 20.8593 12.4999 20.8593C12.8614 20.8593 13.202 21.0156 13.8843 21.3301L14.5041 21.6156C16.903 22.7197 18.103 23.2718 18.8999 22.6676C19.6989 22.0614 19.5666 20.6989 19.303 17.9729L19.253 17.4656Z" fill="black"/>
<path opacity="0.5" d="M9.53479 5.6335L9.19313 6.246C8.81813 6.91891 8.63063 7.25537 8.33896 7.47725C8.38063 7.446 8.41986 7.41232 8.45667 7.3762C8.21183 8.81996 8.3289 10.3019 8.79739 11.6893C9.26589 13.0767 10.0712 14.3263 11.1411 15.326C12.2111 16.3258 13.5123 17.0446 14.9283 17.418C16.3443 17.7915 17.8307 17.8079 19.2546 17.4658L19.2338 17.2679C19.1598 16.4939 19.1223 16.1064 19.2338 15.747C19.3452 15.3887 19.5931 15.0981 20.09 14.5179L20.5421 13.9897C22.289 11.9481 23.1619 10.9262 22.8567 9.946C22.5525 8.96579 21.2713 8.67516 18.7088 8.096L18.0463 7.946C17.3181 7.78141 16.9535 7.69912 16.6608 7.47725C16.3692 7.25537 16.1817 6.91891 15.8067 6.246L15.466 5.6335C14.1463 3.26683 13.4869 2.0835 12.5004 2.0835C11.514 2.0835 10.8546 3.26683 9.53479 5.6335Z" fill="black"/>
</svg>
