<svg width="25" height="25" viewBox="0 0 25 25" fill="none" xmlns="http://www.w3.org/2000/svg">
<path d="M7.31954 11.955C7.21189 12.9795 7.41043 14.0128 7.89004 14.9244C8.36966 15.836 9.10882 16.5849 10.0141 17.0765C10.9193 17.568 11.95 17.7801 12.9757 17.6859C14.0015 17.5916 14.9762 17.1954 15.7768 16.5472C16.5774 15.899 17.1677 15.028 17.4733 14.0443C17.7788 13.0605 17.7858 12.0083 17.4934 11.0206C17.2009 10.0329 16.6222 9.15416 15.8303 8.49539C15.0384 7.83662 14.069 7.42745 13.0445 7.31963C11.9236 7.19803 10.7937 7.44721 9.82787 8.029" stroke="black" stroke-width="2.08333" stroke-linecap="round" stroke-linejoin="round"/>
<path d="M5.87045 5.87082C4.24691 7.49553 3.2763 9.65973 3.14281 11.9527C3.00932 14.2457 3.72225 16.5079 5.14629 18.31C6.57034 20.1122 8.60641 21.3288 10.8681 21.7291C13.1298 22.1294 15.4598 21.6855 17.4159 20.4816C19.3719 19.2776 20.818 17.3975 21.4796 15.198C22.1412 12.9985 21.9724 10.6327 21.0051 8.54941C20.0378 6.46616 18.3394 4.81049 16.2321 3.89661C14.1249 2.98272 11.7555 2.8742 9.57358 3.59165" stroke="black" stroke-width="2.08333" stroke-linecap="round" stroke-linejoin="round"/>
<path d="M17.708 5.20817C17.708 5.48444 17.8178 5.74939 18.0131 5.94474C18.2085 6.14009 18.4734 6.24984 18.7497 6.24984C19.0259 6.24984 19.2909 6.14009 19.4862 5.94474C19.6816 5.74939 19.7913 5.48444 19.7913 5.20817C19.7913 4.9319 19.6816 4.66695 19.4862 4.4716C19.2909 4.27625 19.0259 4.1665 18.7497 4.1665C18.4734 4.1665 18.2085 4.27625 18.0131 4.4716C17.8178 4.66695 17.708 4.9319 17.708 5.20817ZM11.458 12.4998C11.458 12.7761 11.5678 13.0411 11.7631 13.2364C11.9585 13.4318 12.2234 13.5415 12.4997 13.5415C12.7759 13.5415 13.0409 13.4318 13.2362 13.2364C13.4316 13.0411 13.5413 12.7761 13.5413 12.4998C13.5413 12.2236 13.4316 11.9586 13.2362 11.7633C13.0409 11.5679 12.7759 11.4582 12.4997 11.4582C12.2234 11.4582 11.9585 11.5679 11.7631 11.7633C11.5678 11.9586 11.458 12.2236 11.458 12.4998ZM8.33301 16.6665C8.33301 16.9428 8.44275 17.2077 8.63811 17.4031C8.83346 17.5984 9.09841 17.7082 9.37467 17.7082C9.65094 17.7082 9.91589 17.5984 10.1112 17.4031C10.3066 17.2077 10.4163 16.9428 10.4163 16.6665C10.4163 16.3902 10.3066 16.1253 10.1112 15.9299C9.91589 15.7346 9.65094 15.6248 9.37467 15.6248C9.09841 15.6248 8.83346 15.7346 8.63811 15.9299C8.44275 16.1253 8.33301 16.3902 8.33301 16.6665Z" stroke="black" stroke-width="2.08333" stroke-linecap="round" stroke-linejoin="round"/>
</svg>
