<svg width="48" height="77" viewBox="0 0 48 77" fill="none" xmlns="http://www.w3.org/2000/svg">
<path d="M30.8752 14.25C34.8088 14.25 38.0002 11.0586 38.0002 7.125C38.0002 3.19141 34.8088 0 30.8752 0C26.9416 0 23.7502 3.19141 23.7502 7.125C23.7502 11.0586 26.9416 14.25 30.8752 14.25ZM44.9025 36.382L41.4439 34.6305L40.0041 30.2664C37.8221 23.6461 31.7361 19.0148 24.8338 19C19.49 18.9852 16.5361 20.4992 10.9846 22.7406C7.77832 24.032 5.15098 26.4812 3.60723 29.5984L2.6127 31.6172C1.45488 33.9625 2.39004 36.8125 4.72051 37.9852C7.03613 39.1578 9.85645 38.2078 11.0291 35.8625L12.0236 33.8438C12.5432 32.8047 13.4041 31.9883 14.4729 31.5578L18.451 29.9547L16.1947 38.9648C15.4229 42.0523 16.2541 45.3328 18.4064 47.693L27.2979 57.4008C28.3666 58.5734 29.1236 59.9836 29.5096 61.5125L32.226 72.393C32.8643 74.9313 35.4471 76.4898 37.9854 75.8516C40.5236 75.2133 42.0822 72.6305 41.4439 70.0922L38.1486 56.8813C37.7627 55.3523 37.0057 53.9273 35.9369 52.7695L29.183 45.3922L31.7361 35.1945L32.5525 37.6437C33.3393 40.0336 35.0314 42.0078 37.258 43.1359L40.7166 44.8875C43.0322 46.0602 45.8525 45.1102 47.0252 42.7648C48.1682 40.4344 47.233 37.5547 44.9025 36.382ZM10.9252 57.2672C10.4502 58.4695 9.7377 59.5531 8.81738 60.4586L1.39551 67.8953C-0.459961 69.7508 -0.459961 72.7641 1.39551 74.6195C3.25098 76.475 6.24941 76.475 8.10488 74.6195L16.9221 65.8023C17.8275 64.8969 18.54 63.8133 19.0299 62.6109L21.0338 57.5938C12.8252 48.643 15.2893 51.3891 13.9979 49.6227L10.9252 57.2672Z" fill="white"/>
</svg>
