<svg width="67" height="67" viewBox="0 0 67 67" fill="none" xmlns="http://www.w3.org/2000/svg">
<path fill-rule="evenodd" clip-rule="evenodd" d="M48.9591 66.5581C44.1591 66.3815 30.5558 64.5015 16.3091 50.2581C2.06581 36.0115 0.18914 22.4115 0.00913999 17.6081C-0.257527 10.2881 5.34914 3.17815 11.8258 0.40148C12.6057 0.0647033 13.4598 -0.063518 14.3042 0.0293987C15.1487 0.122315 15.9544 0.433177 16.6425 0.93148C21.9758 4.81815 25.6558 10.6981 28.8158 15.3215C29.5111 16.3372 29.8084 17.5733 29.651 18.7941C29.4936 20.015 28.8926 21.1352 27.9625 21.9415L21.4591 26.7715C21.1449 26.9984 20.9238 27.3316 20.8367 27.7092C20.7497 28.0869 20.8026 28.4833 20.9858 28.8248C22.4591 31.5015 25.0791 35.4881 28.0791 38.4881C31.0791 41.4881 35.2558 44.2815 38.1191 45.9215C38.4781 46.123 38.9007 46.1793 39.3 46.0789C39.6993 45.9785 40.0449 45.7289 40.2658 45.3815L44.4991 38.9381C45.2774 37.9043 46.4256 37.2117 47.7031 37.0054C48.9806 36.7991 50.2883 37.0951 51.3525 37.8315C56.0425 41.0781 61.5158 44.6948 65.5225 49.8248C66.0612 50.5178 66.4039 51.3428 66.5148 52.2136C66.6256 53.0844 66.5005 53.9689 66.1525 54.7748C63.3625 61.2848 56.3025 66.8281 48.9591 66.5581Z" fill="#1C1C1B"/>
</svg>
