<svg width="59" height="59" viewBox="0 0 59 59" fill="none" xmlns="http://www.w3.org/2000/svg">
<rect width="59" height="59" rx="7" fill="#FFFEFF"/>
<path d="M25.395 19.7196C24.9004 14.0271 18.9652 11.2339 18.7141 11.1199C18.4792 11.0094 18.2161 10.9741 17.9605 11.0188C11.1086 12.1563 10.078 16.1466 10.0366 16.3124C9.98019 16.5435 9.98915 16.7857 10.0625 17.012C18.235 42.3838 35.2197 47.0865 40.8027 48.6334C41.2326 48.7526 41.5873 48.8485 41.8566 48.9366C42.1639 49.037 42.4979 49.0176 42.7915 48.8822C42.9624 48.8044 46.9968 46.9026 47.9834 40.6996C48.0272 40.4288 47.9837 40.1511 47.8591 39.9067C47.7711 39.7357 45.6606 35.7169 39.8083 34.297C39.6098 34.2462 39.4019 34.2444 39.2025 34.2918C39.0031 34.3392 38.8182 34.4344 38.6637 34.5691C36.8174 36.147 34.2667 37.8286 33.1662 38.0023C25.7886 34.3929 21.6687 27.467 21.5133 26.1533C21.4227 25.4148 23.1137 22.8212 25.0584 20.712C25.1806 20.5793 25.2737 20.4224 25.3317 20.2515C25.3897 20.0806 25.4112 19.8994 25.395 19.7196Z" fill="black"/>
</svg>
