<svg width="60" height="60" viewBox="0 0 60 60" fill="none" xmlns="http://www.w3.org/2000/svg">
<path d="M8.57143 0C3.84375 0 0 3.84375 0 8.57143V51.4286C0 56.1562 3.84375 60 8.57143 60H51.4286C56.1562 60 60 56.1562 60 51.4286V8.57143C60 3.84375 56.1562 0 51.4286 0H8.57143ZM20.3571 12.9509C21.6696 12.5893 23.0491 13.2723 23.5714 14.5312L26.2902 21.0536C26.7455 22.1652 26.4375 23.4375 25.5 24.2009L22.5402 26.6116C24.7098 31.4062 28.5 35.317 33.2009 37.6473L35.7857 34.4866C36.5491 33.5625 37.8214 33.2411 38.933 33.6964L45.4554 36.4152C46.7143 36.9375 47.3839 38.317 47.0357 39.6295L46.9286 40.0045C45.75 44.3304 41.558 48.0268 36.4554 46.942C24.7366 44.4643 15.5223 35.2366 13.0312 23.5179C11.9464 18.4152 15.6429 14.2232 19.9688 13.0446L20.3437 12.9375L20.3571 12.9509Z" fill="#EFE318"/>
</svg>
