<svg width="63" height="64" viewBox="0 0 63 64" fill="none" xmlns="http://www.w3.org/2000/svg">
<path d="M11.6667 16.0417C11.6667 11.7872 13.3568 7.70689 16.3652 4.6985C19.3736 1.6901 23.4538 0 27.7083 0C31.9628 0 36.0431 1.6901 39.0515 4.6985C42.0599 7.70689 43.75 11.7872 43.75 16.0417C43.75 20.2962 42.0599 24.3764 39.0515 27.3848C36.0431 30.3932 31.9628 32.0833 27.7083 32.0833C23.4538 32.0833 19.3736 30.3932 16.3652 27.3848C13.3568 24.3764 11.6667 20.2962 11.6667 16.0417ZM36.4583 33.5417H62.7083V49.9742C62.7078 51.4284 62.3449 52.8596 61.6523 54.1383C60.9597 55.417 59.9594 56.5029 58.7417 57.2979L49.5833 63.2829L40.425 57.2979C39.2073 56.5029 38.2069 55.417 37.5144 54.1383C36.8218 52.8596 36.4588 51.4284 36.4583 49.9742V33.5417ZM30.625 58.3333H0V52.5C0 47.8587 1.84374 43.4075 5.12563 40.1256C8.40752 36.8437 12.8587 35 17.5 35H30.625V58.3333Z" fill="#545525"/>
</svg>
