<svg width="76" height="76" viewBox="0 0 76 76" fill="none" xmlns="http://www.w3.org/2000/svg">
<path d="M26.6002 36.7333L33.2502 30.0833L26.521 23.3541L23.196 26.6791L26.6002 30.0041L23.196 33.4083L26.6002 36.7333ZM66.5002 28.4999C64.7585 28.4999 63.2681 27.8803 62.0288 26.6411C60.7896 25.4019 60.1689 23.9104 60.1668 22.1666C60.1668 20.7416 60.5627 19.2248 61.3543 17.6161C62.146 16.0074 63.8613 13.302 66.5002 9.49993C69.1391 13.2999 70.8543 16.0053 71.646 17.6161C72.4377 19.2269 72.8335 20.7437 72.8335 22.1666C72.8335 23.9083 72.2139 25.3998 70.9747 26.6411C69.7354 27.8824 68.2439 28.502 66.5002 28.4999ZM49.4793 36.8124L52.8835 33.4083L49.4793 30.0041L52.8043 26.6791L49.4793 23.3541L42.7502 30.0833L49.4793 36.8124ZM38.0002 42.7499C36.6279 42.7499 35.2948 42.9083 34.0007 43.2249C32.7066 43.5416 31.48 43.9902 30.321 44.5708L19.0002 37.9999C19.0002 37.1555 18.7891 36.3638 18.3668 35.6249C17.9446 34.886 17.3641 34.3055 16.6252 33.8833C15.4641 33.2499 14.2639 33.1053 13.0247 33.4494C11.7854 33.7935 10.8217 34.5187 10.1335 35.6249C9.50016 36.786 9.35555 37.9873 9.69966 39.2286C10.0438 40.4699 10.7689 41.4326 11.8752 42.1166C12.6141 42.5388 13.4057 42.7499 14.2502 42.7499C15.0946 42.7499 15.8863 42.5388 16.6252 42.1166L26.046 47.5791C25.1488 48.4763 24.3434 49.44 23.6298 50.4703C22.9163 51.5005 22.3231 52.6215 21.8502 53.8333H27.0752C28.1835 51.9333 29.6877 50.4027 31.5877 49.2416C33.4877 48.0805 35.6252 47.4999 38.0002 47.4999C40.3752 47.4999 42.5127 48.0805 44.4127 49.2416C46.3127 50.4027 47.8168 51.9333 48.9252 53.8333H54.1502C52.8835 50.561 50.8114 47.8958 47.934 45.8374C45.0566 43.7791 41.7453 42.7499 38.0002 42.7499ZM38.0002 69.6666C33.5668 69.6666 29.4238 68.8348 25.571 67.1713C21.7182 65.5077 18.3668 63.252 15.5168 60.4041C12.6668 57.5562 10.4238 54.2048 8.78766 50.3499C7.15155 46.495 6.3335 42.3784 6.3335 37.9999C6.3335 33.6215 7.15155 29.5048 8.78766 25.6499C10.4238 21.795 12.6668 18.4437 15.5168 15.5958C18.3668 12.7479 21.7182 10.4911 25.571 8.82543C29.4238 7.15977 33.5668 6.32905 38.0002 6.33327C41.9057 6.33327 45.5875 6.9666 49.0455 8.23327C52.5035 9.49993 55.6037 11.2944 58.346 13.6166C57.6071 14.9888 56.9337 16.361 56.3257 17.7333C55.7177 19.1055 55.4147 20.5833 55.4168 22.1666C55.4168 25.2805 56.4988 27.9067 58.6627 30.0453C60.8266 32.1838 63.4391 33.252 66.5002 33.2499C66.9752 33.2499 67.4502 33.2235 67.9252 33.1708C68.4002 33.118 68.8488 33.0388 69.271 32.9333C69.3766 33.7777 69.4694 34.6095 69.5497 35.4286C69.6299 36.2477 69.6689 37.1048 69.6668 37.9999C69.6668 42.3805 68.8351 46.4972 67.1715 50.3499C65.5079 54.2027 63.2522 57.5541 60.4043 60.4041C57.5564 63.2541 54.2051 65.5109 50.3502 67.1744C46.4953 68.838 42.3786 69.6687 38.0002 69.6666Z" fill="black"/>
</svg>
