<svg width="25" height="25" viewBox="0 0 25 25" fill="none" xmlns="http://www.w3.org/2000/svg">
<path d="M19.8431 5.1148C18.888 4.15033 17.7504 3.3856 16.4968 2.86518C15.2431 2.34476 13.8984 2.07906 12.541 2.08355C6.85352 2.08355 2.2181 6.71897 2.2181 12.4065C2.2181 14.2294 2.69727 16.0002 3.5931 17.5627L2.13477 22.9169L7.60352 21.4794C9.11393 22.3023 10.8118 22.7398 12.541 22.7398C18.2285 22.7398 22.8639 18.1044 22.8639 12.4169C22.8639 9.65647 21.791 7.06272 19.8431 5.1148ZM12.541 20.9898C10.9993 20.9898 9.48893 20.5731 8.16602 19.7919L7.85352 19.6044L4.60352 20.4586L5.4681 17.2919L5.25977 16.969C4.40304 15.6013 3.94823 14.0203 3.94727 12.4065C3.94727 7.6773 7.80143 3.82314 12.5306 3.82314C14.8223 3.82314 16.9785 4.71897 18.5931 6.34397C19.3927 7.13966 20.0263 8.0862 20.4573 9.12869C20.8882 10.1712 21.1079 11.2888 21.1035 12.4169C21.1243 17.1461 17.2702 20.9898 12.541 20.9898ZM17.2493 14.5731C16.9889 14.4481 15.7181 13.8231 15.4889 13.7294C15.2493 13.6461 15.0827 13.6044 14.9056 13.8544C14.7285 14.1148 14.2389 14.6981 14.0931 14.8648C13.9473 15.0419 13.791 15.0627 13.5306 14.9273C13.2702 14.8023 12.4368 14.5211 11.4577 13.6461C10.6868 12.9586 10.1764 12.1148 10.0202 11.8544C9.87435 11.594 9.99935 11.4586 10.1348 11.3231C10.2493 11.2086 10.3952 11.0211 10.5202 10.8752C10.6452 10.7294 10.6973 10.6148 10.7806 10.4481C10.8639 10.2711 10.8223 10.1252 10.7598 10.0002C10.6973 9.87522 10.1764 8.60439 9.9681 8.08355C9.75976 7.58355 9.54102 7.64605 9.38477 7.63564H8.88476C8.70768 7.63564 8.43685 7.69814 8.19727 7.95855C7.9681 8.21897 7.30143 8.84397 7.30143 10.1148C7.30143 11.3856 8.22852 12.6148 8.35352 12.7815C8.47852 12.9586 10.1764 15.5627 12.7598 16.6773C13.3743 16.9481 13.8535 17.1044 14.2285 17.219C14.8431 17.4169 15.4056 17.3856 15.8535 17.3231C16.3535 17.2502 17.3848 16.6981 17.5931 16.094C17.8118 15.4898 17.8118 14.9794 17.7389 14.8648C17.666 14.7502 17.5098 14.6981 17.2493 14.5731Z" fill="white"/>
</svg>
