<svg width="803" height="573" viewBox="0 0 803 573" fill="none" xmlns="http://www.w3.org/2000/svg">
<g opacity="0.71">
<path d="M470.531 177.501C480.497 172.312 492.146 181.419 491.188 193.649L470.559 456.891C469.627 468.785 457.401 474.746 448.388 467.7L254.51 316.134C245.497 309.088 246.333 294.223 256.025 289.177L470.531 177.501Z" fill="#EFE318"/>
<path d="M743.444 322.41C752.321 328.846 751.692 342.238 742.262 347.603L531.58 467.453C521.314 473.293 508.531 465.367 509.088 453.506L521.463 189.875C522.02 178.014 535.474 171.623 545.138 178.63L743.444 322.41Z" fill="#525525"/>
<path d="M654.69 78.7877C664.582 73.4013 676.42 82.3162 675.652 94.5735L668.545 208.056C667.8 219.946 655.678 226.101 646.548 219.225L562.075 155.611C552.944 148.735 553.515 133.882 563.11 128.657L654.69 78.7877Z" fill="#EFE318"/>
<path d="M189.85 92.9654C199.863 87.6476 211.643 96.8568 210.592 109.181L197.423 263.573C196.414 275.405 184.235 281.28 175.261 274.265L62.9872 186.494C54.0138 179.479 54.7939 164.692 64.4067 159.587L189.85 92.9654Z" fill="#EFE318"/>
<path d="M403.582 158.175C413.294 164.526 412.618 178.944 402.364 184.127L256.25 257.986C245.996 263.169 233.856 255.229 234.397 243.695L242.113 79.3313C242.654 67.797 255.471 61.3182 265.183 67.6695L403.582 158.175Z" fill="#525525"/>
<path d="M873.582 170.175C883.294 176.526 882.617 190.944 872.364 196.127L726.249 269.986C715.996 275.169 703.855 267.229 704.397 255.695L712.112 91.3313C712.654 79.797 725.471 73.3182 735.183 79.6695L873.582 170.175Z" fill="#525525"/>
<path d="M468.198 32.7926C477.604 27.0394 489.71 34.9006 489.988 46.9428L491.864 128.227C492.142 140.269 480.384 147.461 470.7 141.172L405.332 98.7216C395.648 92.4327 395.3 77.38 404.706 71.6268L468.198 32.7926Z" fill="#EFE318"/>
</g>
</svg>
