<svg width="86" height="84" viewBox="0 0 86 84" fill="none" xmlns="http://www.w3.org/2000/svg">
<g clip-path="url(#clip0_64_122)">
<path d="M85.9953 62.7664C85.9953 63.2263 85.9809 64.2238 85.9526 64.9943C85.8834 66.8796 85.7304 69.3124 85.499 70.4208C85.1512 72.0865 84.6262 73.6587 83.9418 74.9673C83.1319 76.5154 82.0989 77.902 80.8714 79.0988C79.6465 80.2931 78.2282 81.2982 76.6457 82.086C75.2989 82.7564 73.6792 83.2694 71.9641 83.6076C70.8405 83.8292 68.3685 83.9758 66.4507 84.0424C65.661 84.0699 64.6396 84.0838 64.1705 84.0838L21.8234 84.0772C21.3525 84.0772 20.3314 84.0631 19.5425 84.0354C17.6123 83.9678 15.1217 83.8184 13.9868 83.5924C12.2814 83.2527 10.6717 82.74 9.33197 82.0714C7.74702 81.2803 6.32743 80.2713 5.10218 79.0724C3.87937 77.876 2.85039 76.4908 2.04389 74.945C1.3574 73.6295 0.832164 72.0474 0.485896 70.3723C0.259139 69.2749 0.109059 66.8604 0.0407793 64.987C0.0127285 64.2158 -0.00146484 63.2182 -0.00146484 62.76L0.00525391 21.3976C0.00525391 20.9376 0.0196152 19.9402 0.047918 19.1697C0.117205 17.2844 0.270141 14.8517 0.501518 13.7432C0.849297 12.0775 1.3742 10.5052 2.05876 9.19658C2.86862 7.64857 3.90171 6.26191 5.12914 5.06516C6.35397 3.87086 7.7723 2.86574 9.35481 2.07791C10.7017 1.40755 12.3215 0.894524 14.0365 0.55631C15.16 0.334743 17.6321 0.188153 19.5499 0.121544C20.3396 0.0940635 21.3611 0.0802002 21.83 0.0802002L64.1772 0.0868447C64.6482 0.0868447 65.6693 0.100872 66.4581 0.128517C68.3884 0.196192 70.8789 0.345571 72.0139 0.571567C73.7192 0.911259 75.3289 1.42395 76.6687 2.09259C78.2536 2.88362 79.6732 3.89268 80.8984 5.09157C82.1211 6.28791 83.1502 7.67318 83.9567 9.21897C84.6432 10.5345 85.1684 12.1166 85.5147 13.7917C85.7415 14.8891 85.8915 17.3036 85.9598 19.177C85.988 19.9482 86.0021 20.9459 86.0021 21.4041L85.9953 62.7664Z" fill="url(#paint0_linear_64_122)"/>
<path d="M65.785 19.9538C59.9624 14.2619 52.2191 11.1256 43.9689 11.1224C26.9703 11.1224 13.1355 24.6304 13.1287 41.2338C13.1265 46.5412 14.5466 51.7218 17.2454 56.2883L12.8701 71.8931L29.2189 67.7056C33.7235 70.1045 38.795 71.3688 43.9567 71.3709H43.9694C60.9663 71.3709 74.8024 57.8614 74.8093 41.2578C74.8125 33.2116 71.6077 25.6457 65.785 19.9538ZM43.9694 66.2851H43.9589C39.3593 66.2834 34.848 65.0769 30.9124 62.7964L29.9763 62.254L20.2747 64.739L22.8643 55.5029L22.2546 54.5559C19.6887 50.5709 18.3336 45.9649 18.3356 41.2358C18.3411 27.4357 29.8402 16.2084 43.9793 16.2084C50.8258 16.2109 57.2617 18.8179 62.1013 23.5487C66.9409 28.2795 69.6047 34.5681 69.6021 41.2559C69.5966 55.0571 58.0976 66.2851 43.9694 66.2851ZM58.0296 47.5397C57.2589 47.1631 53.4704 45.3428 52.764 45.0917C52.0577 44.8405 51.5441 44.715 51.0302 45.4683C50.5166 46.2216 49.0398 47.9164 48.5902 48.4185C48.1407 48.9207 47.6912 48.9836 46.9207 48.6069C46.15 48.2303 43.6671 47.4357 40.7238 44.8723C38.4331 42.8774 36.8865 40.4132 36.437 39.6598C35.9875 38.9065 36.3892 38.4994 36.7749 38.1242C37.1215 37.7871 37.5455 37.2454 37.9308 36.806C38.316 36.3667 38.4445 36.0527 38.7014 35.5506C38.9583 35.0484 38.8298 34.609 38.6371 34.2324C38.4445 33.8558 36.9033 30.1522 36.2612 28.6457C35.6358 27.1785 35.0003 27.377 34.5273 27.354C34.0784 27.3321 33.5641 27.3275 33.0505 27.3275C32.5368 27.3275 31.7019 27.5158 30.9956 28.2691C30.2893 29.0224 28.2986 30.8427 28.2986 34.5462C28.2986 38.2497 31.0598 41.8276 31.4451 42.3298C31.8304 42.8319 36.8788 50.4321 44.6089 53.6912C46.4475 54.4664 47.8828 54.9294 49.002 55.2762C50.8479 55.8487 52.5278 55.768 53.8557 55.5744C55.3361 55.3584 58.4147 53.7542 59.057 51.9966C59.6991 50.2389 59.6991 48.7324 59.5065 48.4186C59.3138 48.1047 58.8002 47.9164 58.0296 47.5397Z" fill="white"/>
</g>
<defs>
<linearGradient id="paint0_linear_64_122" x1="43.0003" y1="0.0802002" x2="43.0003" y2="84.0839" gradientUnits="userSpaceOnUse">
<stop stop-color="#61FD7D"/>
<stop offset="1" stop-color="#2BB826"/>
</linearGradient>
<clipPath id="clip0_64_122">
<rect width="86" height="84" fill="white"/>
</clipPath>
</defs>
</svg>
